<svg width="30" height="210" viewBox="0 0 30 210" fill="none" xmlns="http://www.w3.org/2000/svg">
<line y1="-1" x2="22" y2="-1" transform="matrix(-1 0 0 1 30 2)" stroke="white" stroke-opacity="0.05" stroke-width="2"/>
<line y1="-1" x2="22" y2="-1" transform="matrix(-1 0 0 1 30 28)" stroke="white" stroke-opacity="0.25" stroke-width="2"/>
<line y1="-1" x2="22" y2="-1" transform="matrix(-1 0 0 1 30 68)" stroke="white" stroke-opacity="0.5" stroke-width="2"/>
<line y1="-1" x2="30" y2="-1" transform="matrix(-1 0 0 1 30 106)" stroke="white" stroke-width="2"/>
<line y1="-1" x2="22" y2="-1" transform="matrix(-1 0 0 1 30 149)" stroke="white" stroke-opacity="0.5" stroke-width="2"/>
<line y1="-1" x2="22" y2="-1" transform="matrix(-1 0 0 1 30 184)" stroke="white" stroke-opacity="0.25" stroke-width="2"/>
<line y1="-1" x2="22" y2="-1" transform="matrix(-1 0 0 1 30 210)" stroke="white" stroke-opacity="0.05" stroke-width="2"/>
</svg>
